# xmcd
#
# Track frame offsets:
#	182
#	9120
#	21362
#	35980
#	46685
#	56725
#	69755
#	81350
#	93980
#	106882
#	118005
#	128827
#	138700
#	153557
#	164147
#	176775
#	189152
#	202962
#	213892
#	225150
#	239772
#	250572
#	261455
#	272367
#	282600
#
# Disc length: 3897 seconds
#
# Revision: 0
# Processed by: cddbd v1.5.1PL2 Copyright (c) Steve Scherf et al.
# Submitted via: EasyCDDAExtractor 9.1.3.1
#
DISCID=620f3719
DTITLE=Dick Rivers - Va t'en va t'en
DYEAR=1999
DGENRE=Chanson
TTITLE0=J'ai embrassé une autre fille
TTITLE1=C'est long long long
TTITLE2=Va t'en va t'en
TTITLE3=Frappe de toute tes forces
TTITLE4=Pour nous tout va commencer
TTITLE5=Prends un ticket avec moi
TTITLE6=Ne pleure pas
TTITLE7=Ce train gronde
TTITLE8=Dans le noir
TTITLE9=Tu n'as pas le droit
TTITLE10=Et quand l'amour s'en va
TTITLE11=Il y a longtemps
TTITLE12=Je l'ai aimée avant toi
TTITLE13=J'ai peur du jour
TTITLE14=Couleurs
TTITLE15=Chacun prenait Maria dans ses bras
TTITLE16=Demain
TTITLE17=Je préfère les chansons d'amour
TTITLE18=Tout se passe dans les yeux
TTITLE19=C'est ma vie
TTITLE20=Forty winks away
TTITLE21=In your shoes
TTITLE22=Please don't bother
TTITLE23=C'est trop tard mon coeur n'est plus a toi
TTITLE24=Bonnes nouvelles
EXTD=
EXTT0=
EXTT1=
EXTT2=
EXTT3=
EXTT4=
EXTT5=
EXTT6=
EXTT7=
EXTT8=
EXTT9=
EXTT10=
EXTT11=
EXTT12=
EXTT13=
EXTT14=
EXTT15=
EXTT16=
EXTT17=
EXTT18=
EXTT19=
EXTT20=
EXTT21=
EXTT22=
EXTT23=
EXTT24=
PLAYORDER=
